<?xml version="1.0" encoding="UTF-8" standalone="no"?>
<!-- Created with Inkscape (http://www.inkscape.org/) -->

<svg xmlns:dc="http://purl.org/dc/elements/1.1/" xmlns:cc="http://creativecommons.org/ns#" xmlns:rdf="http://www.w3.org/1999/02/22-rdf-syntax-ns#" xmlns:svg="http://www.w3.org/2000/svg" xmlns="http://www.w3.org/2000/svg" xmlns:sodipodi="http://sodipodi.sourceforge.net/DTD/sodipodi-0.dtd" xmlns:inkscape="http://www.inkscape.org/namespaces/inkscape" width="469.36499" height="54.84" id="svg2" version="1.1" inkscape:version="0.48+devel r10420 custom" sodipodi:docname="logo.svg">
  <defs id="defs4" />
  <sodipodi:namedview id="base" pagecolor="#ffffff" bordercolor="#666666" borderopacity="1.0" inkscape:pageopacity="0.0" inkscape:pageshadow="2" inkscape:zoom="1.298156" inkscape:cx="286.51811" inkscape:cy="-37.434518" inkscape:document-units="px" inkscape:current-layer="text3256" showgrid="false" inkscape:window-width="1280" inkscape:window-height="671" inkscape:window-x="0" inkscape:window-y="1" inkscape:window-maximized="1" fit-margin-top="0" fit-margin-left="0" fit-margin-right="0" fit-margin-bottom="0" />
  <metadata id="metadata7">
    <rdf:RDF>
      <cc:Work rdf:about="">
        <dc:format>image/svg+xml</dc:format>
        <dc:type rdf:resource="http://purl.org/dc/dcmitype/StillImage" />
        <dc:title></dc:title>
      </cc:Work>
    </rdf:RDF>
  </metadata>
  <g inkscape:label="Layer 1" inkscape:groupmode="layer" id="layer1" transform="translate(-106.56617,-152.98634)" sodipodi:insensitive="true" style="display:none">
    <text xml:space="preserve" style="font-size:40px;font-style:normal;font-weight:normal;line-height:125%;letter-spacing:0px;word-spacing:0px;fill:black;fill-opacity:1;stroke:none;font-family:sans-serif" x="52.29129" y="244.02602" id="text3102" sodipodi:linespacing="125%"><tspan sodipodi:role="line" id="tspan3106" x="52.29129" y="244.02602" /></text>
    <text sodipodi:linespacing="125%" id="text3110" y="206.98634" x="98.046165" style="font-size:120px;font-style:normal;font-variant:normal;font-weight:normal;font-stretch:normal;text-align:start;line-height:125%;letter-spacing:0px;word-spacing:0px;writing-mode:lr-tb;text-anchor:start;fill:black;fill-opacity:1;stroke:none;font-family:Print Dashed;-inkscape-font-specification:Print Dashed" xml:space="preserve"><tspan id="tspan3112" y="206.98634" x="98.046165" sodipodi:role="line">necessitate</tspan><tspan id="tspan3114" y="356.98633" x="98.046165" sodipodi:role="line" /></text>
  </g>
  <g transform="translate(-106.56617,-152.98634)" id="g3250" inkscape:groupmode="layer" inkscape:label="Layer 1 copy">
    <text sodipodi:linespacing="125%" id="text3252" y="244.02602" x="52.29129" style="font-size:40px;font-style:normal;font-weight:normal;line-height:125%;letter-spacing:0px;word-spacing:0px;fill:black;fill-opacity:1;stroke:none;font-family:sans-serif" xml:space="preserve"><tspan y="244.02602" x="52.29129" id="tspan3254" sodipodi:role="line" /></text>
    <g style="font-size:120px;font-style:normal;font-variant:normal;font-weight:normal;font-stretch:normal;text-align:start;line-height:125%;letter-spacing:0px;word-spacing:0px;writing-mode:lr-tb;text-anchor:start;fill:black;fill-opacity:1;stroke:none;font-family:Print Dashed;-inkscape-font-specification:Print Dashed" id="text3256">
      <path d="m 109.56617,176.26634 1.44,0.84 c 0.72,-1.56 1.8,-3 3,-4.2 l -1.08,-1.2 c -1.32,1.32 -2.64,2.88 -3.36,4.56 z m 6.6,-6.96 0.84,1.56 c 1.44,-0.96 3.12,-1.44 4.8,-1.56 l -0.12,-1.68 c -1.92,0.12 -3.84,0.72 -5.52,1.68 z m 9.24,0.12 c 1.56,0.36 3.24,0.96 4.56,2.04 l 0.96,-1.44 c -1.56,-1.08 -3.36,-1.8 -5.28,-2.16 l -0.24,1.56 z m 11.16,8.4 c -0.6,-1.8 -1.56,-3.48 -2.64,-5.04 l -1.32,1.08 c 0.96,1.32 1.8,2.88 2.4,4.56 l 1.56,-0.6 z m -0.6,9.48 1.68,0 0,-0.24 0,-1.92 c 0,-1.08 -0.12,-2.28 -0.24,-3.36 l -1.68,0.12 c 0.24,1.8 0.24,3.6 0.24,5.4 z m 1.68,3.84 -1.68,0 0,5.4 1.68,0 0,-5.4 z m -1.68,14.64 1.68,0 0,-5.4 -1.68,0 0,5.4 z m -27.72,-30.6 0,-6 -1.68,0 0,6 1.68,0 z m 0,4.2 -1.68,0 0,6 c 0.6,0 1.32,0.12 1.92,0.24 0.36,-1.8 0.48,-3.6 1.08,-5.16 l -1.32,-0.48 0,-0.6 z m -1.68,16.32 1.68,0 0,-6.12 -1.68,0 0,6.12 z m 0,10.2 1.68,0 0,-6 -1.68,0 0,6 z" style="" id="path3263" />
      <path d="m 183.66429,203.86634 c 1.8,-1.08 2.76,-3 4.2,-4.44 l -1.44,-0.84 c -1.32,1.2 -2.04,3 -3.72,3.96 l 0.96,1.32 z m -9.48,3.6 c 2.04,0 3.96,-0.84 5.88,-1.44 l -0.72,-1.56 c -1.68,0.6 -3.48,1.32 -5.4,1.32 l 0.24,1.68 z m -4.2,0 0.12,-1.68 c -1.8,0 -3.6,-0.72 -5.16,-1.44 l -0.84,1.44 c 1.92,0.84 3.84,1.68 5.88,1.68 z m -12,-9.48 -1.44,0.96 c 1.2,1.56 2.4,3.24 4.08,4.44 l 1.08,-1.2 c -1.44,-1.2 -2.64,-2.76 -3.72,-4.2 z m -4.44,-8.76 c 0,1.92 0.6,3.96 1.2,5.88 l 1.56,-0.6 c -0.48,-1.8 -1.08,-3.6 -1.08,-5.4 l -1.68,0.12 z m 3.24,-9.36 -1.56,-0.72 c -0.72,1.92 -1.44,3.84 -1.56,5.76 l 1.68,0.24 c 0.12,-1.8 0.72,-3.6 1.44,-5.28 z m 1.92,-3.36 c 0.96,-1.56 2.4,-2.88 3.84,-4.08 l -1.08,-1.32 c -1.44,1.32 -3,2.64 -4.2,4.32 l 1.44,1.08 z m 12.48,-8.76 c -2.04,0 -4.08,0.48 -6,1.32 l 0.72,1.56 c 1.68,-0.72 3.48,-1.2 5.28,-1.2 l 0,-1.68 z m 4.2,0.24 -0.36,1.68 c 1.8,0.48 3.6,1.08 5.16,2.04 l 0.84,-1.44 c -1.68,-1.08 -3.72,-1.68 -5.64,-2.28 z m 12.6,9.84 c -0.84,-1.92 -2.28,-3.48 -3.6,-4.92 l -1.2,1.2 c 1.32,1.32 2.52,2.76 3.24,4.44 l 1.56,-0.72 z m 1.56,3.84 -1.68,0.48 c 0.6,1.44 0.6,3.24 0.72,4.68 l -4.68,0 0,1.68 6.48,0 c -0.12,-2.04 -0.12,-4.92 -0.84,-6.84 z m -9.6,6.84 0,-1.68 -5.76,0 0,1.68 5.76,0 z m -15.36,0 5.64,0 0,-1.68 -5.64,0 0,1.68 z m -4.08,-1.68 -5.64,0 0,1.68 5.64,0 0,-1.68 z" style="" id="path3265" />
      <path d="m 238.55867,177.34634 1.44,-0.84 c -1.2,-1.56 -2.4,-3.24 -3.96,-4.44 l -1.08,1.2 c 1.44,1.2 2.52,2.64 3.6,4.08 z m -11.64,-9.48 -0.24,1.68 c 1.8,0.12 3.48,0.84 5.16,1.56 l 0.72,-1.44 c -1.8,-0.84 -3.6,-1.68 -5.64,-1.8 z m -9.24,3.12 c 1.68,-0.72 3.48,-1.44 5.28,-1.44 l -0.24,-1.68 c -2.04,0 -3.84,0.84 -5.76,1.56 l 0.72,1.56 z m -4.2,0.72 c -1.56,1.2 -2.88,2.76 -3.96,4.44 l 1.44,0.96 c 0.96,-1.56 2.16,-3 3.6,-4.08 l -1.08,-1.32 z m -4.32,8.76 -1.56,-0.6 c -0.6,1.8 -1.32,3.72 -1.32,5.76 l 1.68,0.12 c 0,-1.8 0.72,-3.6 1.2,-5.28 z m -1.2,9.12 -1.68,0.12 c 0,2.04 0.72,3.96 1.32,5.76 l 1.56,-0.6 c -0.48,-1.68 -1.2,-3.48 -1.2,-5.28 z m 3,8.76 -1.44,0.84 c 1.08,1.68 2.4,3.24 3.96,4.44 l 1.08,-1.32 c -1.44,-1.08 -2.64,-2.52 -3.6,-3.96 z m 12,7.44 c -1.8,0 -3.6,-0.72 -5.28,-1.44 l -0.72,1.56 c 1.92,0.72 3.72,1.56 5.76,1.56 l 0.24,-1.68 z m 8.88,-1.56 c -1.68,0.72 -3.36,1.44 -5.16,1.56 l 0.24,1.68 c 2.04,-0.12 3.84,-0.96 5.64,-1.8 l -0.72,-1.44 z m 8.16,-5.4 -1.44,-0.84 c -1.08,1.44 -2.16,2.88 -3.6,4.08 l 1.08,1.2 c 1.56,-1.2 2.76,-2.88 3.96,-4.44 z" style="" id="path3267" />
      <path d="m 285.85179,203.86634 c 1.8,-1.08 2.76,-3 4.2,-4.44 l -1.44,-0.84 c -1.32,1.2 -2.04,3 -3.72,3.96 l 0.96,1.32 z m -9.48,3.6 c 2.04,0 3.96,-0.84 5.88,-1.44 l -0.72,-1.56 c -1.68,0.6 -3.48,1.32 -5.4,1.32 l 0.24,1.68 z m -4.2,0 0.12,-1.68 c -1.8,0 -3.6,-0.72 -5.16,-1.44 l -0.84,1.44 c 1.92,0.84 3.84,1.68 5.88,1.68 z m -12,-9.48 -1.44,0.96 c 1.2,1.56 2.4,3.24 4.08,4.44 l 1.08,-1.2 c -1.44,-1.2 -2.64,-2.76 -3.72,-4.2 z m -4.44,-8.76 c 0,1.92 0.6,3.96 1.2,5.88 l 1.56,-0.6 c -0.48,-1.8 -1.08,-3.6 -1.08,-5.4 l -1.68,0.12 z m 3.24,-9.36 -1.56,-0.72 c -0.72,1.92 -1.44,3.84 -1.56,5.76 l 1.68,0.24 c 0.12,-1.8 0.72,-3.6 1.44,-5.28 z m 1.92,-3.36 c 0.96,-1.56 2.4,-2.88 3.84,-4.08 l -1.08,-1.32 c -1.44,1.32 -3,2.64 -4.2,4.32 l 1.44,1.08 z m 12.48,-8.76 c -2.04,0 -4.08,0.48 -6,1.32 l 0.72,1.56 c 1.68,-0.72 3.48,-1.2 5.28,-1.2 l 0,-1.68 z m 4.2,0.24 -0.36,1.68 c 1.8,0.48 3.6,1.08 5.16,2.04 l 0.84,-1.44 c -1.68,-1.08 -3.72,-1.68 -5.64,-2.28 z m 12.6,9.84 c -0.84,-1.92 -2.28,-3.48 -3.6,-4.92 l -1.2,1.2 c 1.32,1.32 2.52,2.76 3.24,4.44 l 1.56,-0.72 z m 1.56,3.84 -1.68,0.48 c 0.6,1.44 0.6,3.24 0.72,4.68 l -4.68,0 0,1.68 6.48,0 c -0.12,-2.04 -0.12,-4.92 -0.84,-6.84 z m -9.6,6.84 0,-1.68 -5.76,0 0,1.68 5.76,0 z m -15.36,0 5.64,0 0,-1.68 -5.64,0 0,1.68 z m -4.08,-1.68 -5.64,0 0,1.68 5.64,0 0,-1.68 z" style="" id="path3269" />
      <path d="m 338.58617,178.90634 0,-0.36 c 0,-2.04 -0.84,-4.08 -2.16,-5.76 l -1.32,1.08 c 1.08,1.32 1.8,3.12 1.8,4.8 l 1.68,0.24 z m -11.76,-9 c 1.92,0.12 3.72,0.84 5.4,1.56 l 0.84,-1.56 c -1.92,-0.72 -3.96,-1.56 -6,-1.68 l -0.24,1.68 z m -9.72,0.48 c 1.92,-0.48 3.84,-0.72 5.76,-0.72 l -0.12,-1.68 c -2.04,0 -4.08,0.24 -6,0.84 l 0.36,1.56 z m -8.04,5.4 1.68,0.36 c 0.12,-1.8 1.44,-3.24 2.88,-4.2 l -0.96,-1.44 c -1.8,1.2 -3.36,3.12 -3.6,5.28 z m 5.52,8.64 0.72,-1.56 c -1.68,-0.72 -3.24,-1.68 -4.08,-3.24 l -1.56,0.72 c 1.08,2.04 3,3.24 4.92,4.08 z m 10.32,0.96 c -1.92,-0.48 -3.84,-0.84 -5.76,-1.32 l -0.48,1.68 c 1.92,0.48 3.96,0.84 5.88,1.2 l 0.36,-1.56 z m 9.84,3 c -1.8,-1.08 -3.84,-1.68 -5.76,-2.16 l -0.48,1.68 c 1.92,0.48 3.72,0.96 5.28,1.92 l 0.96,-1.44 z m 3.24,3.12 -1.32,0.84 c 0.96,1.44 1.32,3.36 1.08,5.04 l 1.56,0.36 c 0.12,-0.48 0.24,-1.08 0.24,-1.56 0,-1.68 -0.6,-3.36 -1.56,-4.68 z m -5.16,14.4 c 1.92,-0.96 3.48,-2.4 4.8,-4.08 l -1.44,-0.96 c -1.08,1.44 -2.4,2.76 -4.08,3.48 l 0.72,1.56 z m -4.44,-0.24 c -1.92,0.48 -3.84,0.48 -5.64,0.48 l -0.12,1.68 c 2.04,0 4.08,0 6.12,-0.48 l -0.36,-1.68 z m -9.6,-0.12 c -1.8,-0.36 -3.72,-0.96 -5.16,-2.16 l -0.96,1.32 c 1.68,1.32 3.72,2.04 5.64,2.52 l 0.48,-1.68 z m -7.56,-4.92 c -0.84,-1.68 -1.2,-3.48 -1.08,-5.28 l -1.56,-0.24 c -0.12,0.36 -0.12,0.84 -0.12,1.2 0,1.8 0.48,3.48 1.2,5.04 l 1.56,-0.72 z" style="" id="path3271" />
      <path d="m 385.46117,178.90634 0,-0.36 c 0,-2.04 -0.84,-4.08 -2.16,-5.76 l -1.32,1.08 c 1.08,1.32 1.8,3.12 1.8,4.8 l 1.68,0.24 z m -11.76,-9 c 1.92,0.12 3.72,0.84 5.4,1.56 l 0.84,-1.56 c -1.92,-0.72 -3.96,-1.56 -6,-1.68 l -0.24,1.68 z m -9.72,0.48 c 1.92,-0.48 3.84,-0.72 5.76,-0.72 l -0.12,-1.68 c -2.04,0 -4.08,0.24 -6,0.84 l 0.36,1.56 z m -8.04,5.4 1.68,0.36 c 0.12,-1.8 1.44,-3.24 2.88,-4.2 l -0.96,-1.44 c -1.8,1.2 -3.36,3.12 -3.6,5.28 z m 5.52,8.64 0.72,-1.56 c -1.68,-0.72 -3.24,-1.68 -4.08,-3.24 l -1.56,0.72 c 1.08,2.04 3,3.24 4.92,4.08 z m 10.32,0.96 c -1.92,-0.48 -3.84,-0.84 -5.76,-1.32 l -0.48,1.68 c 1.92,0.48 3.96,0.84 5.88,1.2 l 0.36,-1.56 z m 9.84,3 c -1.8,-1.08 -3.84,-1.68 -5.76,-2.16 l -0.48,1.68 c 1.92,0.48 3.72,0.96 5.28,1.92 l 0.96,-1.44 z m 3.24,3.12 -1.32,0.84 c 0.96,1.44 1.32,3.36 1.08,5.04 l 1.56,0.36 c 0.12,-0.48 0.24,-1.08 0.24,-1.56 0,-1.68 -0.6,-3.36 -1.56,-4.68 z m -5.16,14.4 c 1.92,-0.96 3.48,-2.4 4.8,-4.08 l -1.44,-0.96 c -1.08,1.44 -2.4,2.76 -4.08,3.48 l 0.72,1.56 z m -4.44,-0.24 c -1.92,0.48 -3.84,0.48 -5.64,0.48 l -0.12,1.68 c 2.04,0 4.08,0 6.12,-0.48 l -0.36,-1.68 z m -9.6,-0.12 c -1.8,-0.36 -3.72,-0.96 -5.16,-2.16 l -0.96,1.32 c 1.68,1.32 3.72,2.04 5.64,2.52 l 0.48,-1.68 z m -7.56,-4.92 c -0.84,-1.68 -1.2,-3.48 -1.08,-5.28 l -1.56,-0.24 c -0.12,0.36 -0.12,0.84 -0.12,1.2 0,1.8 0.48,3.48 1.2,5.04 l 1.56,-0.72 z" style="" id="path3273" />
      <path d="m 406.77617,169.54634 -1.68,0 0,6 1.68,0 0,-6 z m 0,10.2 -1.68,0 0,6 1.68,0 0,-6 z m -1.68,16.08 1.68,0 0,-5.88 -1.68,0 0,5.88 z m 1.68,4.2 -1.68,0 0,6 1.68,0 0,-6 z m -0.12,-41.76 0.24,0.72 c 0.72,-0.24 1.32,-0.72 1.68,-1.44 l -0.72,-0.36 c -0.24,0.48 -0.72,0.84 -1.2,1.08 z m -1.32,0.84 0.12,-0.84 c -0.6,0 -1.08,-0.36 -1.32,-0.84 l -0.72,0.48 c 0.48,0.6 1.08,1.08 1.92,1.2 z m -1.92,-4.92 c -0.48,0.6 -0.6,1.2 -0.6,1.92 l 0,0.24 0.84,0 0,-0.36 c 0,-0.48 0.12,-0.96 0.48,-1.32 l -0.72,-0.48 z m 1.2,-0.96 0.36,0.72 c 0.48,-0.12 1.08,-0.24 1.68,0 l 0.24,-0.84 c -0.24,-0.12 -0.48,-0.12 -0.84,-0.12 l -0.24,0 c -0.36,0 -0.84,0.12 -1.2,0.24 z m 4.44,2.88 c 0,-0.84 -0.24,-1.56 -0.84,-2.16 l -0.6,0.6 c 0.36,0.36 0.6,0.96 0.6,1.56 l 0.84,0 z" style="" id="path3275" />
      <path d="m 433.21929,160.06634 1.68,0 0,-5.4 -1.68,0 0,5.4 z m 1.68,13.08 -1.68,0 0,5.4 1.68,0 0,-5.4 z m 0,9.24 -1.68,0 0,5.4 1.68,0 0,-5.4 z m 0,9.12 -1.68,0 0,5.52 1.68,0 0,-5.52 z m -1.68,14.76 1.68,0 0,-5.52 -1.68,0 0,5.52 z m -4.68,-37.8 -4.8,0 0,1.68 4.8,0 0,-1.68 z m 8.16,0 -1.8,0 0,-4.56 -1.68,0 0,4.56 -1.32,0 0,1.68 4.8,0 0,-1.68 z m 8.04,0 -4.8,0 0,1.68 4.8,0 0,-1.68 z" style="" id="path3277" />
      <path d="m 483.47679,203.38634 0.96,1.32 c 1.56,-1.08 3.12,-2.28 4.32,-3.96 l -1.32,-0.96 c -1.08,1.44 -2.52,2.52 -3.96,3.6 z m -8.64,2.64 0,1.68 c 2.04,-0.24 3.96,-0.36 5.88,-1.08 l -0.6,-1.56 c -1.68,0.72 -3.48,0.72 -5.28,0.96 z m -8.64,-2.64 -0.84,1.32 c 1.56,1.2 3.48,1.92 5.4,2.4 l 0.36,-1.56 c -1.68,-0.48 -3.36,-1.2 -4.92,-2.16 z m -2.88,-2.4 c -1.2,-1.44 -2.4,-2.76 -3.12,-4.44 l -1.44,0.72 c 0.72,1.92 2.04,3.36 3.36,4.92 l 1.2,-1.2 z m -5.28,-13.32 -1.68,0 c 0.24,1.92 0.24,3.96 0.84,5.76 l 1.68,-0.36 c -0.72,-1.8 -0.6,-3.6 -0.84,-5.4 z m -1.32,-4.08 1.68,0.24 c 0.48,-1.68 0.84,-3.48 1.8,-5.04 l -1.44,-0.72 c -1.08,1.68 -1.44,3.6 -2.04,5.52 z m 5.52,-7.92 c 1.08,-1.56 2.52,-2.64 3.96,-3.72 l -0.84,-1.32 c -1.68,1.08 -3.24,2.28 -4.44,3.96 l 1.32,1.08 z m 12.6,-8.04 c -1.92,0.24 -3.96,0.36 -5.76,1.08 l 0.48,1.56 c 1.68,-0.72 3.6,-0.72 5.28,-0.96 l 0,-1.68 z m 9.6,3 c -1.68,-1.2 -3.48,-1.92 -5.4,-2.4 l -0.48,1.56 c 1.8,0.48 3.48,1.2 4.92,2.16 l 0.96,-1.32 z m 6.6,7.44 c -0.84,-1.92 -2.16,-3.36 -3.48,-4.92 l -1.2,1.2 c 1.2,1.44 2.4,2.76 3.12,4.44 l 1.56,-0.72 z m 2.4,-8.88 -1.68,0 0,6 1.68,0 0,-6 z m 0,10.2 -1.68,0 0,6 1.68,0 0,-6 z m 0,10.2 -1.68,0 0,1.92 -0.48,0 c -0.48,1.68 -0.84,3.48 -1.8,5.04 l 1.56,0.72 c 0.24,-0.48 0.48,-1.08 0.72,-1.68 l 1.68,0 0,-6 z m 0,16.2 0,-6 -1.68,0 0,6 1.68,0 z" style="" id="path3279" />
      <path d="m 517.59429,160.06634 1.68,0 0,-5.4 -1.68,0 0,5.4 z m 1.68,13.08 -1.68,0 0,5.4 1.68,0 0,-5.4 z m 0,9.24 -1.68,0 0,5.4 1.68,0 0,-5.4 z m 0,9.12 -1.68,0 0,5.52 1.68,0 0,-5.52 z m -1.68,14.76 1.68,0 0,-5.52 -1.68,0 0,5.52 z m -4.68,-37.8 -4.8,0 0,1.68 4.8,0 0,-1.68 z m 8.16,0 -1.8,0 0,-4.56 -1.68,0 0,4.56 -1.32,0 0,1.68 4.8,0 0,-1.68 z m 8.04,0 -4.8,0 0,1.68 4.8,0 0,-1.68 z" style="" id="path3281" />
      <path d="m 569.21117,203.86634 c 1.8,-1.08 2.76,-3 4.2,-4.44 l -1.44,-0.84 c -1.32,1.2 -2.04,3 -3.72,3.96 l 0.96,1.32 z m -9.48,3.6 c 2.04,0 3.96,-0.84 5.88,-1.44 l -0.72,-1.56 c -1.68,0.6 -3.48,1.32 -5.4,1.32 l 0.24,1.68 z m -4.2,0 0.12,-1.68 c -1.8,0 -3.6,-0.72 -5.16,-1.44 l -0.84,1.44 c 1.92,0.84 3.84,1.68 5.88,1.68 z m -12,-9.48 -1.44,0.96 c 1.2,1.56 2.4,3.24 4.08,4.44 l 1.08,-1.2 c -1.44,-1.2 -2.64,-2.76 -3.72,-4.2 z m -4.44,-8.76 c 0,1.92 0.6,3.96 1.2,5.88 l 1.56,-0.6 c -0.48,-1.8 -1.08,-3.6 -1.08,-5.4 l -1.68,0.12 z m 3.24,-9.36 -1.56,-0.72 c -0.72,1.92 -1.44,3.84 -1.56,5.76 l 1.68,0.24 c 0.12,-1.8 0.72,-3.6 1.44,-5.28 z m 1.92,-3.36 c 0.96,-1.56 2.4,-2.88 3.84,-4.08 l -1.08,-1.32 c -1.44,1.32 -3,2.64 -4.2,4.32 l 1.44,1.08 z m 12.48,-8.76 c -2.04,0 -4.08,0.48 -6,1.32 l 0.72,1.56 c 1.68,-0.72 3.48,-1.2 5.28,-1.2 l 0,-1.68 z m 4.2,0.24 -0.36,1.68 c 1.8,0.48 3.6,1.08 5.16,2.04 l 0.84,-1.44 c -1.68,-1.08 -3.72,-1.68 -5.64,-2.28 z m 12.6,9.84 c -0.84,-1.92 -2.28,-3.48 -3.6,-4.92 l -1.2,1.2 c 1.32,1.32 2.52,2.76 3.24,4.44 l 1.56,-0.72 z m 1.56,3.84 -1.68,0.48 c 0.6,1.44 0.6,3.24 0.72,4.68 l -4.68,0 0,1.68 6.48,0 c -0.12,-2.04 -0.12,-4.92 -0.84,-6.84 z m -9.6,6.84 0,-1.68 -5.76,0 0,1.68 5.76,0 z m -15.36,0 5.64,0 0,-1.68 -5.64,0 0,1.68 z m -4.08,-1.68 -5.64,0 0,1.68 5.64,0 0,-1.68 z" style="" id="path3283" />
    </g>
  </g>
</svg>
